<?xml version="1.0" standalone="no"?>
<!DOCTYPE svg PUBLIC "-//W3C//DTD SVG 20010904//EN"
 "http://www.w3.org/TR/2001/REC-SVG-20010904/DTD/svg10.dtd">
<svg version="1.0" xmlns="http://www.w3.org/2000/svg"
 width="2560.000000pt" height="650.000000pt" viewBox="0 0 2560.000000 650.000000"
 preserveAspectRatio="xMidYMid meet">
<metadata>
Created by potrace 1.16, written by Peter Selinger 2001-2019
</metadata>
<g transform="translate(0.000000,650.000000) scale(0.100000,-0.100000)"
fill="#000000" stroke="none">
<path d="M4875 6488 c-16 -50 -68 -287 -87 -398 -21 -126 -23 -162 -23 -535 0
-420 2 -443 50 -650 32 -137 58 -212 100 -296 63 -126 118 -179 187 -179 82 0
158 93 339 415 256 455 403 636 593 729 270 132 604 25 931 -299 232 -230 406
-513 481 -782 70 -253 44 -446 -76 -575 -107 -114 -236 -159 -646 -228 -339
-57 -431 -77 -552 -123 -279 -105 -442 -272 -531 -543 -43 -133 -55 -222 -55
-394 1 -608 329 -1220 818 -1525 219 -136 485 -223 801 -261 143 -17 546 -19
690 -4 364 39 551 75 1650 315 994 217 1305 277 1835 354 36 6 110 15 165 21
55 6 136 15 180 20 44 5 181 14 305 21 376 20 699 -13 948 -97 312 -106 534
-361 629 -723 31 -119 43 -344 23 -455 -15 -84 -52 -194 -86 -253 l-25 -43
2861 0 2860 0 -120 237 c-181 360 -265 512 -451 819 -438 724 -917 1341 -1471
1899 -541 543 -1035 909 -1455 1076 -250 99 -678 153 -1040 130 -447 -28 -722
-78 -1535 -281 -514 -128 -710 -171 -889 -195 -153 -21 -382 -21 -479 0 -231
48 -393 209 -443 440 -55 247 -23 508 139 1150 165 655 194 816 194 1069 l0
156 -3405 0 c-2716 0 -3406 -3 -3410 -12z"/>
<path d="M18976 5439 c-84 -66 -150 -320 -193 -742 -22 -219 -25 -1091 -5
-1367 54 -725 131 -1269 282 -2005 40 -191 111 -485 194 -795 29 -111 107
-386 115 -410 5 -14 15 -46 22 -73 l13 -47 1567 0 1566 0 36 122 c109 372 177
726 198 1028 14 198 6 497 -16 590 -42 177 -108 260 -207 260 -88 0 -156 -36
-391 -204 -197 -141 -277 -192 -387 -248 -278 -142 -538 -149 -795 -21 -266
133 -510 399 -744 810 -71 126 -216 427 -286 598 -148 355 -318 862 -530 1575
-182 611 -264 829 -347 912 -44 44 -55 46 -92 17z"/>
</g>
</svg>
